<svg id="visual" viewBox="0 0 900 600" width="900" height="600" xmlns="http://www.w3.org/2000/svg" xmlns:xlink="http://www.w3.org/1999/xlink" version="1.1"><path d="M0 115L82 85L164 121L245 49L327 121L409 103L491 115L573 145L655 127L736 163L818 103L900 145L900 0L818 0L736 0L655 0L573 0L491 0L409 0L327 0L245 0L164 0L82 0L0 0Z" fill="#a8f3ec"></path><path d="M0 157L82 181L164 169L245 127L327 193L409 151L491 169L573 235L655 223L736 241L818 199L900 223L900 143L818 101L736 161L655 125L573 143L491 113L409 101L327 119L245 47L164 119L82 83L0 113Z" fill="#b3eae4"></path><path d="M0 229L82 223L164 283L245 247L327 235L409 283L491 265L573 283L655 265L736 295L818 259L900 265L900 221L818 197L736 239L655 221L573 233L491 167L409 149L327 191L245 125L164 167L82 179L0 155Z" fill="#bce0dc"></path><path d="M0 481L82 493L164 361L245 463L327 487L409 367L491 457L573 505L655 415L736 433L818 367L900 379L900 263L818 257L736 293L655 263L573 281L491 263L409 281L327 233L245 245L164 281L82 221L0 227Z" fill="#c5d6d4"></path><path d="M0 601L82 601L164 601L245 601L327 601L409 601L491 601L573 601L655 601L736 601L818 601L900 601L900 377L818 365L736 431L655 413L573 503L491 455L409 365L327 485L245 461L164 359L82 491L0 479Z" fill="#cccccc"></path></svg>